# xmcd CD database file
#
# Track frame offsets:
#	150
#	15361
#	28763
#	38119
#	50915
#	66175
#	78836
#	93110
#	103102
#	116388
#	131102
#	141684
#
# Disc length: 2066 seconds
#
# Revision: 1
# Processed by: cddbd v1.4PL0 Copyright (c) Steve Scherf et al.
# Submitted via: CDex 1.50
#
DISCID=a208100c
DTITLE=Giovanni - Around The World With Giovanni - Disc 2
DYEAR=1900
DGENRE=New Age
TTITLE0=Sukiyaki
TTITLE1=Gentle Heart
TTITLE2=Mademoiselle De Paris
TTITLE3=Hatikuah
TTITLE4=When Romeo Wept
TTITLE5=Caravan
TTITLE6=Never On Sunday
TTITLE7=Aufwiedersehen
TTITLE8=Song Of India
TTITLE9=Domino
TTITLE10=Irish Washerwoman
TTITLE11=Il Mondo
EXTD=
EXTT0=
EXTT1=
EXTT2=
EXTT3=
EXTT4=
EXTT5=
EXTT6=
EXTT7=
EXTT8=
EXTT9=
EXTT10=
EXTT11=
PLAYORDER=
